<svg version="1.1" id="Layer_1" xmlns="http://www.w3.org/2000/svg" xmlns:xlink="http://www.w3.org/1999/xlink" x="0px" y="0px"
	 width="100%" viewBox="0 0 1024 672" enable-background="new 0 0 1024 672" xml:space="preserve">
<path fill="#000000" opacity="1.000000" stroke="none" 
	d="
M151.149078,459.649780 
	C128.494553,463.373627 111.485092,449.612457 108.663452,426.298584 
	C106.065384,404.832031 107.579697,383.435150 108.439613,361.973572 
	C109.213036,342.670410 110.262390,323.390778 111.779297,304.143524 
	C113.281837,285.078522 115.342628,266.057709 117.134415,247.015259 
	C118.676544,230.626160 120.223343,214.237305 121.691582,197.841507 
	C122.433479,189.556686 122.977852,181.254395 123.663414,172.964294 
	C124.285034,165.447357 129.295319,160.590454 136.192917,160.727432 
	C142.754990,160.857742 147.674637,165.815369 148.231689,173.040482 
	C148.436188,175.692856 148.352188,178.371292 148.324265,181.037048 
	C148.232803,189.770203 148.891586,198.322281 153.144257,206.257584 
	C155.221008,210.132751 154.799072,213.746597 150.662140,216.139252 
	C148.548447,217.361740 148.448135,219.250351 148.359589,221.285080 
	C146.933640,254.049316 143.096771,286.650208 141.514404,319.394379 
	C140.156082,347.502441 138.369080,375.609406 138.475464,403.769165 
	C138.500519,410.402649 138.791992,417.097198 140.192795,423.632904 
	C141.404312,429.285522 144.092239,430.329865 148.417648,426.496796 
	C153.917725,421.622711 158.341339,415.733673 162.605881,409.758209 
	C190.117142,371.209625 211.447662,329.239655 231.803329,286.626678 
	C246.604828,255.640900 256.494263,223.039719 266.679504,190.467117 
	C267.473450,187.928024 268.200378,185.335052 269.324493,182.938843 
	C271.839783,177.577148 276.947632,174.655289 282.159637,175.300552 
	C287.867950,176.007278 292.081085,179.913651 293.161804,186.004700 
	C293.799194,189.597137 294.004150,193.281540 294.195923,196.935471 
	C295.879608,229.016830 297.663971,261.093964 299.116302,293.186035 
	C300.117401,315.306000 301.169250,337.424622 303.407806,359.448853 
	C305.205597,377.136353 307.066528,394.865570 312.316284,411.988403 
	C312.999023,414.215118 313.714264,416.451538 314.663696,418.571838 
	C315.864136,421.252777 316.597656,424.961792 319.966675,425.267822 
	C323.653809,425.602783 325.779572,422.375092 327.492096,419.491058 
	C342.702057,393.876343 353.250122,366.519409 357.632233,336.971832 
	C362.778748,302.270111 366.519440,267.386688 370.787994,232.571671 
	C371.293152,228.451172 371.746582,224.298096 372.667969,220.261459 
	C373.830841,215.167130 377.588837,212.354874 382.284790,212.481522 
	C386.923157,212.606613 390.462921,215.714310 391.316925,220.889160 
	C395.045380,243.482422 396.091522,266.172211 394.418365,289.053436 
	C392.644348,313.313751 390.210663,337.478058 385.274597,361.303314 
	C379.822388,387.619751 370.020294,412.305511 355.945557,435.230652 
	C350.899963,443.449005 344.560394,450.368988 335.536163,454.488129 
	C319.625153,461.750793 302.772095,457.344971 292.573212,443.128998 
	C285.401642,433.132660 282.076965,421.607147 279.792358,409.796265 
	C273.739471,378.504333 271.283356,346.851105 270.586578,315.015717 
	C270.273804,300.725861 269.318359,286.450043 268.599670,270.987061 
	C263.009338,287.066345 256.671661,301.674713 250.325241,316.283875 
	C231.532227,359.544464 208.788376,400.530304 180.322495,438.225983 
	C172.852036,448.118622 163.937714,456.190521 151.149078,459.649780 
z"/>
<path fill="#000000" opacity="1.000000" stroke="none" 
	d="
M450.685547,362.938232 
	C452.766693,345.665771 453.701202,328.623779 459.581207,312.513885 
	C466.360077,293.941162 475.743866,277.016754 491.820984,264.706390 
	C513.727783,247.932251 537.293335,253.256393 555.960571,270.855927 
	C563.825806,278.271332 562.820374,288.033997 561.970886,297.580109 
	C559.252991,328.123108 543.922119,351.616211 521.267883,371.228760 
	C508.388672,382.378723 495.240234,393.088989 480.375427,401.493286 
	C477.688141,403.012634 477.445129,404.611176 478.659332,407.138367 
	C484.619781,419.544006 494.837036,426.721222 507.959167,428.903748 
	C525.277649,431.784149 542.874512,432.300781 560.066528,428.118927 
	C577.596558,423.854889 592.204956,413.756714 605.845215,402.356140 
	C614.532837,395.095001 622.820679,387.355927 631.298706,379.843567 
	C633.246277,378.117859 634.198486,376.008789 634.768738,373.428467 
	C639.938721,350.034058 645.040771,326.613678 653.636536,304.149902 
	C655.130737,300.244873 656.982971,296.537720 659.414612,293.116058 
	C668.694153,280.058807 685.202454,278.547729 696.594421,289.735748 
	C697.060669,290.193634 697.561462,290.616364 697.950867,290.969055 
	C699.705200,291.161499 700.410889,289.796539 701.476868,289.089020 
	C705.221130,286.603943 708.855591,283.938812 712.701904,281.624878 
	C731.498901,270.316559 744.827393,280.831696 749.892151,295.623383 
	C754.119568,307.969849 755.652771,320.882233 757.299805,333.752594 
	C759.660828,352.202271 759.509399,370.966064 764.256348,389.119293 
	C765.231384,392.848053 766.559875,396.417145 768.448669,399.775299 
	C772.368469,406.744537 778.330688,410.324860 786.315186,410.707397 
	C796.351013,411.188202 806.269043,410.434967 816.110535,408.382507 
	C821.834717,407.188660 825.992981,409.157013 827.673401,413.557190 
	C829.390381,418.053192 827.549683,422.237152 822.354187,424.987976 
	C811.416382,430.779114 800.100647,435.512421 787.745483,437.459991 
	C769.128845,440.394562 754.834534,433.567749 744.182312,418.440796 
	C736.477112,407.498871 733.678284,394.825439 731.701721,381.912201 
	C728.577515,361.500763 728.768738,340.763336 725.706787,320.342041 
	C724.922058,315.108826 724.217529,309.868408 722.556030,304.659973 
	C718.255920,305.121307 715.516052,307.633972 712.909912,310.089050 
	C704.622742,317.895966 697.543152,326.468628 692.837219,337.140045 
	C687.463257,349.326691 679.973633,360.397430 672.713379,371.603973 
	C663.775513,385.399811 658.700623,401.026764 655.438293,417.102600 
	C654.155029,423.426300 654.168091,430.002441 653.326355,436.428986 
	C652.203857,444.998291 646.315674,449.783356 637.856079,449.315796 
	C630.574585,448.913391 625.037109,442.853973 624.794983,434.832062 
	C624.660583,430.381714 624.770813,425.923950 624.770813,421.096527 
	C621.566406,423.645142 618.279968,426.344177 614.905640,428.928558 
	C597.122314,442.548798 578.225830,453.992798 555.438965,456.696075 
	C534.846252,459.139069 514.038635,460.229675 494.050262,453.633759 
	C474.471436,447.172974 459.890656,434.493256 452.904419,414.417908 
	C451.907501,411.553192 450.431549,409.905579 447.441040,409.504425 
	C442.697876,408.868164 439.767822,405.987701 439.242279,401.391479 
	C438.727844,396.892487 441.343994,393.814148 445.407562,392.113739 
	C447.650635,391.175110 448.749725,389.841125 448.895721,387.277954 
	C449.349701,379.308929 450.061462,371.354584 450.685547,362.938232 
M481.315552,328.720703 
	C478.016083,343.265656 476.920349,358.052002 475.831329,373.756561 
	C478.247101,372.027039 479.887787,370.948456 481.423920,369.737183 
	C492.411011,361.073792 502.358734,351.276917 512.560303,341.725555 
	C527.669861,327.578949 533.728394,309.606018 536.954529,290.034973 
	C537.459900,286.969147 536.327332,285.432892 534.045410,283.925720 
	C523.689453,277.085846 515.280090,277.522888 505.916412,285.803864 
	C493.126526,297.114929 486.078888,311.821198 481.315552,328.720703 
M679.684509,302.180206 
	C677.125854,306.527374 675.716187,311.261200 674.380920,317.222687 
	C678.535400,311.084900 683.973206,307.462677 687.038696,301.649170 
	C684.555420,299.709595 682.366272,299.801147 679.684509,302.180206 
z"/>
</svg>